<?xml version="1.0" encoding="UTF-8"?><svg xmlns="http://www.w3.org/2000/svg" xmlns:xlink="http://www.w3.org/1999/xlink" viewBox="0 0 800 600"><defs><style>.d{fill:#fff;}.e{fill:#e0e0e0;}.f{fill:#c7c7c7;}.g{fill:url(#b);}.h{fill:#acacac;}</style><linearGradient id="b" x1="50" y1="-50" x2="750" y2="650" gradientTransform="matrix(1, 0, 0, 1, 0, 0)" gradientUnits="userSpaceOnUse"><stop offset="0" stop-color="#659ad2"/><stop offset="1" stop-color="#004482"/></linearGradient></defs><g id="a"><rect class="g" width="800" height="600"/></g><g id="c"><path class="h" d="M596.5,391.05V208.95h-.15c.03-1.38-.01-2.77-.13-4.14-.02-.25-.04-.51-.07-.76-.02-.17-.03-.34-.06-.5-.03-.24-.06-.48-.09-.71-.07-.49-.14-.97-.22-1.45-.07-.39-.14-.79-.22-1.18-.05-.24-.1-.47-.15-.71-.8-3.54-2.08-6.97-3.84-10.18-2.98-5.09-7.12-9.39-12.05-12.57-.71-.45-1.43-.88-2.17-1.29-46.71-26.97-93.43-53.9-140.16-80.8-5.6-3.22-11.2-6.45-16.8-9.67-14.09-8.15-27.75-7.86-41.75,.42-20.81,12.23-125.05,72.02-156.11,90.03-12.79,7.41-19.01,18.75-19.01,33.5v182.12c-.13,6.7,1.45,13.32,4.6,19.24v.02c3.42,5.99,8.42,10.92,14.47,14.24,31.06,18.07,135.31,77.78,156.13,90.07,14,8.27,27.66,8.56,41.77,.42,52.29-30.21,104.61-60.38,156.96-90.5,6.04-3.32,11.04-8.25,14.45-14.24,3.15-5.92,4.74-12.55,4.61-19.26Zm-117.2,35.32c-69.37,39.32-157.48,14.96-196.8-54.42-.56-1.14-1.19-2.28-1.81-3.43,0,0-.01-.02-.02-.03-32.4-62.08-15.57-138.47,39.93-181.19,63.17-48.62,153.78-36.85,202.42,26.3,0,.01,.02,.03,.03,.04,.87,1.17,1.79,2.37,2.67,3.61,1.69,2.33,3.3,4.74,4.84,7.21l-48.1,27.72-15.25,8.79c-.4-.61-.83-1.21-1.26-1.81-.95-1.23-1.79-2.43-2.74-3.58l-.03-.03c-21.16-25.74-57.2-33.64-87.19-19.12-35.87,17.37-50.87,60.53-33.5,96.4v.02c.57,1.17,1.17,2.32,1.81,3.45,12.7,23.03,36.94,37.31,63.24,37.27,24.3,.01,46.97-12.22,60.29-32.54l61.95,37.45c-12.67,19.83-30,36.27-50.48,47.88Z"/><path class="f" d="M591.78,410.32c-.77,1.41-1.65,2.76-2.62,4.05l-189.23-114.37,2.02-1.42,61.25-43c.95,1.15,1.79,2.34,2.74,3.58,.43,.6,.87,1.19,1.26,1.81l15.25-8.79,48.1-27.72c-1.54-2.48-3.15-4.88-4.84-7.21-.88-1.25-1.81-2.44-2.67-3.61,0-.01-.02-.03-.03-.04l54.33-38.14c.74,.41,1.46,.84,2.17,1.29,4.93,3.18,9.06,7.48,12.03,12.57,1.88,3.42,3.23,7.09,4.01,10.89,.08,.39,.15,.79,.22,1.18,.08,.48,.16,.97,.22,1.45,.03,.24,.06,.47,.09,.71,.02,.17,.04,.34,.06,.5,.03,.25,.05,.51,.07,.76,.12,1.37,.16,2.76,.13,4.14,.04,60.71,.04,182.11,.04,182.11,.14,6.71-1.45,13.34-4.61,19.26Z"/><path class="e" d="M467.2,260.97l15.25-8.79-80.5,46.4-59.46,34.27v-.02c-17.38-35.87-2.38-79.03,33.49-96.4,29.99-14.52,66.03-6.62,87.19,19.12l.03,.03c.95,1.15,1.79,2.34,2.74,3.58,.43,.6,.87,1.19,1.26,1.81Z"/><path class="e" d="M591.55,189.32l-60.99,35.15c-1.54-2.48-3.15-4.88-4.84-7.21-.88-1.25-1.81-2.44-2.67-3.61,0-.01-.02-.03-.03-.04-48.64-63.15-139.26-74.92-202.42-26.3-55.5,42.72-72.33,119.1-39.93,181.19l-72.56,41.82-.04,.02c-3.14-5.92-4.71-12.54-4.57-19.24V208.94c0-14.75,6.23-26.09,19.01-33.5,31.08-18.01,135.31-77.8,156.14-90.07,13.97-8.27,27.64-8.56,41.74-.42,5.6,3.23,11.2,6.47,16.8,9.7,46.7,26.97,93.42,53.9,140.16,80.8,.74,.41,1.46,.84,2.17,1.29,4.93,3.18,9.06,7.48,12.03,12.57Z"/><polygon class="d" points="530.57 224.47 482.46 252.19 530.56 224.46 530.57 224.47"/></g></svg>