<?xml version="1.0" encoding="UTF-8"?><svg xmlns="http://www.w3.org/2000/svg" xmlns:xlink="http://www.w3.org/1999/xlink" viewBox="0 0 800 600"><defs><style>.d{fill:#fff;}.e{fill:#e0e0e0;}.f{fill:#c7c7c7;}.g{fill:url(#b);}.h{fill:#acacac;}</style><linearGradient id="b" x1="50" y1="-50" x2="750" y2="650" gradientTransform="matrix(1, 0, 0, 1, 0, 0)" gradientUnits="userSpaceOnUse"><stop offset="0" stop-color="#659ad2"/><stop offset="1" stop-color="#004482"/></linearGradient></defs><g id="a"><rect class="g" width="800" height="600"/></g><g id="c"><path class="e" d="M596.61,208.95c0-7.43-1.59-14-4.81-19.64-3.16-5.54-7.89-10.19-14.23-13.86-52.35-30.19-104.76-60.29-157.1-90.5-14.11-8.15-27.79-7.85-41.79,.41-20.84,12.29-125.17,72.06-156.26,90.07-12.8,7.41-19.03,18.76-19.04,33.5-.02,60.71,0,121.42-.02,182.13,0,7.27,1.52,13.71,4.6,19.26,3.16,5.71,7.95,10.48,14.44,14.24,31.09,18.01,135.44,77.78,156.27,90.07,14.01,8.27,27.69,8.56,41.81,.41,52.34-30.22,104.75-60.32,157.11-90.5,6.49-3.75,11.28-8.53,14.44-14.24,3.07-5.55,4.59-11.99,4.6-19.26,0,0,0-121.39-.02-182.1Zm-55.41,98.39v-14.96h14.96v-14.96h14.96v14.96h14.96v14.96h-14.96v14.96h-14.96v-14.96h-14.96Zm-54.58,0v-14.96h14.96v-14.96h14.96v14.96h14.96v14.96h-14.96v14.96h-14.96v-14.96h-14.96Zm26.8,57.43c-22.5,39.32-64.87,65.83-113.42,65.83s-90.77-26.4-113.3-65.61c-11-19.14-17.3-41.33-17.3-64.99,0-72.13,58.47-130.6,130.6-130.6,48.31,0,90.49,26.24,113.09,65.24l-56.84,32.73c-11.26-19.37-32.22-32.4-56.24-32.4-35.92,0-65.03,29.11-65.03,65.03-.01,11.32,2.94,22.44,8.57,32.26h0c11.21,19.57,32.28,32.77,56.46,32.77s45.51-13.37,56.67-33.14l8.63,5,48.13,27.88Z"/><path class="h" d="M343.54,332.26h0l57.06-32.85,56.07,32.48c-11.15,19.78-32.34,33.14-56.67,33.14s-45.25-13.2-56.46-32.77Z"/><path class="h" d="M592.04,410.31c-3.16,5.71-7.95,10.48-14.44,14.24-52.36,30.19-104.77,60.28-157.11,90.5-14.11,8.15-27.8,7.85-41.81-.41-20.83-12.29-125.18-72.06-156.27-90.07-6.49-3.76-11.28-8.53-14.44-14.24l78.74-45.33c22.54,39.21,64.84,65.61,113.3,65.61s90.92-26.5,113.42-65.83l-48.13-27.88,126.74,73.42Z"/><path class="h" d="M456.67,331.89c-11.15,19.78-32.34,33.14-56.67,33.14s-45.25-13.2-56.46-32.77l57.06-32.85,56.07,32.48Z"/><path class="f" d="M596.61,208.95c0-7.43-1.59-14-4.81-19.64l-78.72,45.33-56.84,32.73-55.64,32.04,56.07,32.48,8.63,5,126.74,73.42c3.07-5.55,4.59-11.99,4.6-19.26,0,0,0-121.39-.02-182.1Zm-65.11,98.39h-14.96v14.96h-14.96v-14.96h-14.96v-14.96h14.96v-14.96h14.96v14.96h14.96v14.96Zm54.59,0h-14.96v14.96h-14.96v-14.96h-14.96v-14.96h14.96v-14.96h14.96v14.96h14.96v14.96Z"/><polygon class="d" points="513.09 234.64 513.09 234.64 456.24 267.37 456.24 267.37 513.09 234.64"/></g></svg>