<?xml version="1.0" encoding="UTF-8"?><svg xmlns="http://www.w3.org/2000/svg" xmlns:xlink="http://www.w3.org/1999/xlink" viewBox="0 0 801 601"><defs><style>.e{fill:#fff;}.f{fill:#e0e0e0;}.g{fill:#c7c7c7;}.h{fill:url(#b);stroke:url(#c);stroke-miterlimit:10;}.i{fill:#acacac;}</style><linearGradient id="b" x1="50.5" y1="-49.5" x2="750.5" y2="650.5" gradientTransform="matrix(1, 0, 0, 1, 0, 0)" gradientUnits="userSpaceOnUse"><stop offset="0" stop-color="#a179dc"/><stop offset="1" stop-color="#280068"/></linearGradient><linearGradient id="c" x1="0" y1="300.5" x2="801" y2="300.5" gradientTransform="matrix(1, 0, 0, 1, 0, 0)" gradientUnits="userSpaceOnUse"><stop offset="0" stop-color="#a179dc"/><stop offset="1" stop-color="#280068"/></linearGradient></defs><g id="a"><rect class="h" x=".5" y=".5" width="800" height="600"/></g><g id="d"><path class="f" d="M597.11,209.45c0-7.43-1.59-14-4.8-19.64-3.16-5.54-7.89-10.19-14.23-13.86-52.36-30.19-104.76-60.28-157.1-90.5-14.11-8.15-27.79-7.85-41.8,.41-20.83,12.29-125.17,72.07-156.26,90.07-12.8,7.42-19.03,18.76-19.03,33.5-.02,60.71,0,121.42-.02,182.13,0,7.27,1.52,13.71,4.59,19.26,3.16,5.71,7.96,10.49,14.45,14.24,31.09,18.01,135.43,77.78,156.27,90.07,14.01,8.27,27.69,8.57,41.8,.42,52.34-30.22,104.75-60.32,157.12-90.51,6.48-3.75,11.28-8.53,14.44-14.23,3.07-5.55,4.59-11.99,4.59-19.26,0,0,0-121.39-.02-182.1Zm-30.76,100.82v10.37h-20.73v20.73h-10.37v-20.73h-20.73v20.73h-10.37v-20.73h-20.73v-10.37h20.73v-20.73h-20.73v-10.36h20.73v-20.74h10.37v20.74h20.73v-20.74h10.37v20.74h20.73v10.36h-20.73v20.73h20.73Zm-163.2,136.4h-1.63c-54.24,.01-101.59-29.54-126.81-73.43l-.24-.42c-12.17-21.32-19.12-46.01-19.12-72.32,0-80.73,65.44-146.18,146.17-146.18,53.91,0,100.99,29.18,126.33,72.6l-63.62,36.64c-12.53-21.23-35.51-35.55-61.88-35.85h-.83c-40.2,0-72.79,32.59-72.79,72.79-.01,12.51,3.21,24.8,9.37,35.68,.07,.14,.15,.29,.23,.43,12.55,21.91,36.14,36.68,63.19,36.68s50.57-14.72,63.12-36.57h.01l63.53,36.8c-25.01,43.29-71.58,72.57-125.03,73.15Zm111.37-136.4h20.73v-20.73h-20.73v20.73Z"/><path class="i" d="M338.33,336.61c-.08-.14-.16-.29-.23-.43l63-36.27,63.54,36.81c-12.55,21.85-36.11,36.57-63.12,36.57s-50.64-14.77-63.19-36.68Z"/><path class="i" d="M592.54,410.81c-3.16,5.7-7.96,10.48-14.44,14.23-52.37,30.19-104.78,60.29-157.12,90.51-14.11,8.15-27.79,7.85-41.8-.42-20.84-12.29-125.18-72.06-156.27-90.07-6.49-3.75-11.29-8.53-14.45-14.24l66.01-38,.24,.42c25.22,43.89,72.57,73.44,126.81,73.44h1.63c53.45-.59,100.02-29.87,125.03-73.16l64.36,37.29Z"/><rect class="g" x="514.52" y="289.54" width="20.73" height="20.73"/><path class="g" d="M597.11,209.45c0-7.43-1.59-14-4.8-19.64l-64.45,37.11h-.01l-63.62,36.64-63.13,36.35,63.54,36.81h.01l63.53,36.8,64.36,37.29c3.07-5.55,4.59-11.99,4.59-19.26,0,0,0-121.39-.02-182.1Zm-30.76,80.09h-20.73v20.73h20.73v10.37h-20.73v20.73h-10.37v-20.73h-20.73v20.73h-10.37v-20.73h-20.73v-10.37h20.73v-20.73h-20.73v-10.36h20.73v-20.74h10.37v20.74h20.73v-20.74h10.37v20.74h20.73v10.36Z"/><path class="e" d="M464.95,336.19l-.3,.53h-.01c.11-.18,.21-.35,.31-.53Z"/></g></svg>