<?xml version="1.0" encoding="UTF-8"?><svg xmlns="http://www.w3.org/2000/svg" xmlns:xlink="http://www.w3.org/1999/xlink" viewBox="0 0 801 601"><defs><style>.e{fill:#b4b4b4;}.f{fill:#e0e0e0;}.g{fill:#c7c7c7;}.h{fill:url(#b);stroke:url(#c);stroke-miterlimit:10;}.i{fill:#d2d2d2;}</style><linearGradient id="b" x1="50.5" y1="-49.5" x2="750.5" y2="650.5" gradientTransform="matrix(1, 0, 0, 1, 0, 0)" gradientUnits="userSpaceOnUse"><stop offset="0" stop-color="#00d2b8"/><stop offset="1" stop-color="#00a4e4"/></linearGradient><linearGradient id="c" x1="0" y1="300.5" x2="801" y2="300.5" gradientTransform="matrix(1, 0, 0, 1, 0, 0)" gradientUnits="userSpaceOnUse"><stop offset="0" stop-color="#a179dc"/><stop offset="1" stop-color="#280068"/></linearGradient></defs><g id="a"><rect class="h" x=".5" y=".5" width="800" height="600"/></g><g id="d"><path class="i" d="M301.28,199.81l-28.57-28.57,.12,206.5,.34,9.65c.14,4.54,.98,9.67,2.39,14.98l226.36,79.82,56.58-25.07,.02-.07L301.28,199.81"/><path class="f" d="M275.57,402.37h.01c-.01-.08-.06-.18-.06-.28,0,.1,.01,.19,.05,.28Zm282.94,54.75l-56.58,25.07-226.35-79.81c4.32,16.59,13.9,35.24,24.2,45.43l73.87,73.45,164.25,.21,20.64-64.43-.02,.07h0Z"/><path class="g" d="M184.74,304.13c-7.31,7.81-3.68,23.91,8.09,35.78l50.79,51.21,31.94,11.25c-1.41-5.31-2.25-10.44-2.39-14.98l-.34-9.65-.12-206.5-87.98,132.89h0Z"/><path class="e" d="M503.78,173.89c-5.31-1.36-10.4-2.2-15.02-2.34l-10.2-.35-205.85,.03,285.84,285.82h.02l25.1-56.64-79.9-226.52"/><path class="g" d="M503.53,173.84c.11,.02,.2,.06,.27,.07h-.01c-.06-.04-.15-.04-.26-.07h0Zm45.66,24.31c-10.37-10.46-28.77-19.97-45.39-24.24l79.89,226.51-25.1,56.64h-.02l61.35-19.59,.13-168.2-70.85-71.11h0Z"/><path class="f" d="M492.59,142.15l-51.2-50.82c-11.84-11.73-27.95-15.38-35.74-8.09l-132.94,87.99,205.85-.03,10.2,.35c4.62,.15,9.71,.98,15.02,2.34l-11.19-31.75h0Z"/></g></svg>