<?xml version="1.0" encoding="UTF-8"?><svg xmlns="http://www.w3.org/2000/svg" xmlns:xlink="http://www.w3.org/1999/xlink" viewBox="0 0 801 601"><defs><style>.e{fill:#e0e0e0;}.f{fill:url(#b);stroke:url(#c);stroke-miterlimit:10;}</style><linearGradient id="b" x1="50.5" y1="-49.5" x2="750.5" y2="650.5" gradientTransform="matrix(1, 0, 0, 1, 0, 0)" gradientUnits="userSpaceOnUse"><stop offset="0" stop-color="#74cedd"/><stop offset="1" stop-color="#00acd7"/></linearGradient><linearGradient id="c" x1="0" y1="300.5" x2="801" y2="300.5" gradientTransform="matrix(1, 0, 0, 1, 0, 0)" gradientUnits="userSpaceOnUse"><stop offset="0" stop-color="#a179dc"/><stop offset="1" stop-color="#280068"/></linearGradient></defs><g id="a"><rect class="f" x=".5" y=".5" width="800" height="600"/></g><g id="d"><path class="e" d="M94.7,240.41c-1.3,0-1.63-.65-.98-1.63l6.84-8.8c.65-.98,2.28-1.63,3.58-1.63h116.31c1.3,0,1.63,.98,.98,1.95l-5.54,8.47c-.65,.98-2.28,1.95-3.26,1.95l-117.94-.33Zm-49.2,29.97c-1.3,0-1.63-.65-.98-1.63l6.84-8.8c.65-.98,2.28-1.63,3.58-1.63H203.51c1.3,0,1.95,.98,1.63,1.95l-2.61,7.82c-.33,1.3-1.63,1.95-2.93,1.95l-154.1,.33Zm78.84,29.97c-1.3,0-1.63-.98-.98-1.95l4.56-8.14c.65-.98,1.95-1.95,3.26-1.95h65.16c1.3,0,1.95,.98,1.95,2.28l-.65,7.82c0,1.3-1.3,2.28-2.28,2.28l-71.02-.33Zm338.18-65.81c-20.53,5.21-34.53,9.12-54.73,14.34-4.89,1.3-5.21,1.63-9.45-3.26-4.89-5.54-8.47-9.12-15.31-12.38-20.53-10.1-40.4-7.17-58.97,4.89-22.15,14.34-33.56,35.51-33.23,61.9,.33,26.06,18.24,47.57,43.98,51.15,22.15,2.93,40.72-4.89,55.39-21.5,2.93-3.58,5.54-7.49,8.8-12.05h-62.88c-6.84,0-8.47-4.24-6.19-9.77,4.24-10.1,12.05-27.04,16.62-35.51,.98-1.95,3.26-5.21,8.14-5.21h118.59c-.65,8.8-.65,17.59-1.95,26.39-3.58,23.46-12.38,44.96-26.72,63.86-23.46,30.95-54.08,50.17-92.85,55.39-31.93,4.24-61.58-1.95-87.64-21.5-24.11-18.24-37.79-42.35-41.38-72.33-4.24-35.51,6.19-67.44,27.69-95.46,23.13-30.3,53.76-49.52,91.22-56.36,30.63-5.54,59.95-1.95,86.34,15.96,17.27,11.4,29.65,27.04,37.79,45.94,1.95,2.93,.65,4.56-3.26,5.54Z"/><path class="e" d="M570.36,414.71c-29.65-.65-56.69-9.12-79.5-28.67-19.22-16.62-31.28-37.79-35.19-62.88-5.86-36.82,4.24-69.4,26.39-98.39,23.78-31.28,52.45-47.57,91.22-54.41,33.23-5.86,64.51-2.61,92.85,16.62,25.74,17.59,41.7,41.38,45.94,72.65,5.54,43.98-7.17,79.82-37.47,110.45-21.5,21.83-47.89,35.51-78.19,41.7-8.8,1.63-17.59,1.95-26.06,2.93h0Zm77.54-131.62c-.33-4.24-.33-7.49-.98-10.75-5.86-32.25-35.51-50.5-66.46-43.33-30.3,6.84-49.85,26.06-57.01,56.69-5.86,25.41,6.52,51.15,29.97,61.58,17.92,7.82,35.84,6.84,53.11-1.95,25.74-13.36,39.75-34.21,41.38-62.23h0Z"/></g></svg>