<?xml version="1.0" encoding="utf-8"?>
<!-- Generator: Adobe Illustrator 26.2.1, SVG Export Plug-In . SVG Version: 6.00 Build 0)  -->
<svg version="1.1" id="a" xmlns="http://www.w3.org/2000/svg" xmlns:xlink="http://www.w3.org/1999/xlink" x="0px" y="0px"
	 viewBox="0 0 800 600" style="enable-background:new 0 0 800 600;" xml:space="preserve">
<style type="text/css">
	.st0{fill:url(#SVGID_1_);}
	.st1{fill:#0C0C0C;}
</style>
<linearGradient id="SVGID_1_" gradientUnits="userSpaceOnUse" x1="50" y1="650" x2="750" y2="-50" gradientTransform="matrix(1 0 0 -1 0 600)">
	<stop  offset="0" style="stop-color:#F5DF4E"/>
	<stop  offset="1" style="stop-color:#F8E024"/>
</linearGradient>
<rect class="st0" width="800" height="600"/>
<path class="st1" d="M179,79v442h442V79H179z M412,457.6c-6.5,13.2-19,21.9-33.4,26.1c-22.1,5.1-43.3,2.2-59.1-7.3
	c-10.5-6.5-18.8-16.4-24.4-27.9c11.2-6.8,22.4-13.7,33.6-20.6c0.3,0.1,1.2,1.7,2.4,3.8c4.3,7.2,8,12.3,15.3,15.8
	c7.1,2.4,22.8,4,28.9-8.6c3.7-6.4,2.5-27.2,2.5-50c0-35.7,0.2-71.2,0.2-106.9h41.3c0,38,0.2,75.9,0,113.8
	C419.4,419.2,421.4,440.2,412,457.6L412,457.6z M583.5,445.9C569.1,495,489,496.6,457,464.1c-6.8-7.7-11-11.6-15-20.5
	c11.3-6.5,22.5-13,33.6-19.4c9,13.8,17.3,21.4,32.3,24.5c20.3,2.5,40.7-4.5,36.1-26c-4.7-17.6-41.5-21.9-66.6-40.7
	c-25.5-17.1-31.4-58.6-10.5-82.4c7-8.8,18.9-15.3,31.4-18.5c4.3-0.5,8.7-1.1,13-1.7c25-0.5,40.6,6.1,52.1,18.9
	c3.2,3.2,5.8,6.7,10.7,14.3c-13.3,8.5-13.3,8.4-32.3,20.8c-4.1-8.8-10.8-14.3-18-16.7c-11.1-3.4-25.1,0.3-28,12
	c-1,3.6-0.8,7,0.8,12.9c4.5,10.2,19.6,14.7,33.1,20.9c39,15.8,52.1,32.7,55.3,52.9C587.9,432.9,584.1,444.2,583.5,445.9L583.5,445.9
	z"/>
</svg>
