<?xml version="1.0" encoding="UTF-8"?><svg xmlns="http://www.w3.org/2000/svg" xmlns:xlink="http://www.w3.org/1999/xlink" viewBox="0 0 801 601"><defs><style>.e{fill:#e0e0e0;}.f{fill:#c7c7c7;}.g{fill:url(#b);stroke:url(#c);stroke-miterlimit:10;}</style><linearGradient id="b" x1="50.5" y1="-49.5" x2="750.5" y2="650.5" gradientTransform="matrix(1, 0, 0, 1, 0, 0)" gradientUnits="userSpaceOnUse"><stop offset="0" stop-color="#e76f00"/><stop offset="1" stop-color="#bd5c02"/></linearGradient><linearGradient id="c" x1="0" y1="300.5" x2="801" y2="300.5" gradientTransform="matrix(1, 0, 0, 1, 0, 0)" gradientUnits="userSpaceOnUse"><stop offset="0" stop-color="#a179dc"/><stop offset="1" stop-color="#280068"/></linearGradient></defs><g id="a"><rect class="g" x=".5" y=".5" width="800" height="600"/></g><g id="d"><path class="e" d="M509.31,428.05h-1.66v-.93h4.48v.93h-1.65v4.65h-1.16v-4.65Zm8.94,.24h-.03l-1.65,4.41h-.76l-1.64-4.41h-.02v4.41h-1.1v-5.58h1.61l1.52,3.95,1.51-3.95h1.61v5.58h-1.07v-4.41Z"/><path class="f" d="M360.25,313.96s-11.59,6.74,8.25,9.02c24.02,2.74,36.3,2.35,62.78-2.66,0,0,6.96,4.36,16.68,8.14-59.35,25.44-134.32-1.47-87.7-14.5m-7.25-33.19s-12.99,9.62,6.85,11.67c25.66,2.65,45.93,2.86,81-3.89,0,0,4.85,4.92,12.48,7.61-71.76,20.98-151.68,1.65-100.33-15.39"/><path class="e" d="M414.13,224.46c14.62,16.84-3.84,31.99-3.84,31.99,0,0,37.13-19.17,20.08-43.17-15.93-22.39-28.14-33.51,37.98-71.86,0,0-103.79,25.92-54.22,83.04"/><path class="f" d="M492.63,338.51s8.57,7.07-9.44,12.53c-34.26,10.38-142.58,13.51-172.67,.41-10.82-4.71,9.47-11.24,15.85-12.61,6.65-1.44,10.46-1.17,10.46-1.17-12.03-8.47-77.76,16.64-33.39,23.83,121.01,19.62,220.58-8.84,189.2-22.99m-126.81-92.13s-55.1,13.09-19.51,17.84c15.03,2.01,44.98,1.56,72.88-.78,22.8-1.92,45.7-6.01,45.7-6.01,0,0-8.04,3.44-13.86,7.41-55.95,14.72-164.05,7.87-132.93-7.18,26.32-12.72,47.71-11.28,47.71-11.28m98.84,55.25c56.88-29.56,30.58-57.96,12.22-54.13-4.5,.94-6.51,1.75-6.51,1.75,0,0,1.67-2.62,4.86-3.75,36.31-12.77,64.24,37.65-11.72,57.63,0,0,.88-.79,1.14-1.49"/><path class="e" d="M430.37,79.5s31.5,31.51-29.88,79.97c-49.22,38.87-11.22,61.03-.02,86.35-28.73-25.92-49.81-48.74-35.67-69.98,20.76-31.17,78.28-46.29,65.57-96.34"/><path class="f" d="M371.41,381.72c54.6,3.49,138.44-1.94,140.42-27.77,0,0-3.82,9.79-45.12,17.57-46.6,8.77-104.08,7.75-138.16,2.13,0,0,6.98,5.77,42.86,8.08"/><path class="e" d="M362.46,480.43c-5.15,4.47-10.59,6.98-15.47,6.98-6.97,0-10.73-4.18-10.73-10.88,0-7.25,4.03-12.55,20.22-12.55h5.99v16.45m14.21,16.03v-49.64c0-12.68-7.23-21.05-24.67-21.05-10.18,0-19.1,2.51-26.34,5.72l2.09,8.79c5.71-2.09,13.09-4.04,20.34-4.04,10.04,0,14.37,4.04,14.37,12.41v6.27h-5.01c-24.4,0-35.41,9.47-35.41,23.69,0,12.27,7.25,19.25,20.91,19.25,8.78,0,15.33-3.63,21.46-8.93l1.11,7.53h11.15Zm47.43,0h-17.72l-21.33-69.42h15.48l13.24,42.65,2.94,12.83c6.7-18.55,11.43-37.36,13.8-55.48h15.06c-4.04,22.86-11.29,47.95-21.46,69.42m68-16.03c-5.16,4.47-10.61,6.98-15.49,6.98-6.96,0-10.73-4.18-10.73-10.88,0-7.25,4.04-12.55,20.22-12.55h6v16.45m14.21,16.03v-49.64c0-12.68-7.25-21.05-24.67-21.05-10.19,0-19.11,2.51-26.35,5.72l2.09,8.79c5.71-2.09,13.11-4.04,20.35-4.04,10.04,0,14.36,4.04,14.36,12.41v6.27h-5.02c-24.41,0-35.42,9.47-35.42,23.69,0,12.27,7.25,19.25,20.91,19.25,8.79,0,15.34-3.63,21.47-8.93l1.12,7.53h11.15Zm-199.86,11.79c-4.05,5.92-10.6,10.6-17.76,13.24l-7.02-8.26c5.45-2.8,10.13-7.32,12.3-11.53,1.88-3.74,2.66-8.57,2.66-20.11v-79.26h15.1v78.17c0,15.42-1.23,21.65-5.28,27.73"/></g></svg>