<?xml version="1.0" encoding="UTF-8"?><svg xmlns="http://www.w3.org/2000/svg" xmlns:xlink="http://www.w3.org/1999/xlink" viewBox="0 0 801 601"><defs><style>.e{fill:#e0e0e0;fill-rule:evenodd;}.f{fill:url(#b);stroke:url(#c);stroke-miterlimit:10;}</style><linearGradient id="b" x1="50.5" y1="-49.5" x2="750.5" y2="650.5" gradientTransform="matrix(1, 0, 0, 1, 0, 0)" gradientUnits="userSpaceOnUse"><stop offset="0" stop-color="#8993be"/><stop offset="1" stop-color="#8993be"/></linearGradient><linearGradient id="c" x1="0" y1="300.5" x2="801" y2="300.5" gradientTransform="matrix(1, 0, 0, 1, 0, 0)" gradientUnits="userSpaceOnUse"><stop offset="0" stop-color="#a179dc"/><stop offset="1" stop-color="#280068"/></linearGradient></defs><g id="a"><rect class="f" x=".5" y=".5" width="800" height="600"/></g><g id="d"><g><path class="e" d="M319.11,260.55c-1.97,33.56-17.76,39.48-35.52,41.45h-23.68l9.87-59.21h25.66c13.82,0,23.68,5.92,23.68,17.76Z"/><path class="e" d="M413.85,134.23c-159.15,0-288.16,67.16-288.16,150s129.01,150,288.16,150,288.16-67.16,288.16-150-129.01-150-288.16-150Zm-126.32,197.37h-35.52l-7.9,41.45h-37.5l31.58-159.87h73.02c31.58,1.98,47.37,17.76,47.37,45.4,0,47.37-37.5,75-71.05,73.03Zm148.59-88.81h-29.61l-17.76,88.81h-37.5l31.58-159.87h37.5l-7.9,41.44h35.52c31.58,1.98,43.42,17.76,39.48,37.5l-13.82,80.92h-39.47l13.82-73.03c1.97-9.87,1.97-15.79-11.84-15.79Zm115.89,88.81h-35.53l-7.9,41.45h-37.5l31.58-159.87h73.03c31.58,1.98,47.37,17.76,47.37,45.4,0,47.37-37.5,75-71.05,73.03Zm7.89-88.81h-25.66l-9.87,59.21h23.69c17.76-1.97,33.55-7.89,35.52-41.45,0-11.84-9.87-17.76-23.68-17.76Z"/></g></g></svg>