<?xml version="1.0" encoding="UTF-8"?><svg xmlns="http://www.w3.org/2000/svg" xmlns:xlink="http://www.w3.org/1999/xlink" viewBox="0 0 800 600"><defs><style>.d{fill:#e0e0e0;}.e{fill:url(#b);}</style><linearGradient id="b" x1="50" y1="-50" x2="750" y2="650" gradientTransform="matrix(1, 0, 0, 1, 0, 0)" gradientUnits="userSpaceOnUse"><stop offset="0" stop-color="#3873a8"/><stop offset="1" stop-color="#365fa8"/></linearGradient></defs><g id="a"><rect class="e" width="800" height="600"/></g><g id="c"><path class="d" d="M398.4,79c-112.79,0-105.75,48.91-105.75,48.91l.13,50.68h107.64v15.21H250.02s-72.18-8.19-72.18,105.62,63,109.78,63,109.78h37.6v-52.81s-2.03-63,61.99-63h106.76s59.98,.97,59.98-57.97v-97.45s9.11-58.98-108.77-58.98Zm-59.35,34.08c10.68,0,19.35,8.64,19.36,19.33,0,.01,0,.02,0,.03,0,10.68-8.64,19.35-19.33,19.36-.01,0-.02,0-.03,0-10.68,0-19.35-8.64-19.36-19.33,0-.01,0-.02,0-.03,0-10.68,8.64-19.35,19.33-19.36,.01,0,.02,0,.03,0Z"/><path class="d" d="M401.6,521c112.79,0,105.75-48.91,105.75-48.91l-.13-50.67h-107.64v-15.21h150.39s72.18,8.19,72.18-105.63-63-109.77-63-109.77h-37.6v52.81s2.03,63-61.99,63h-106.76s-59.98-.97-59.98,57.97v97.45s-9.11,58.97,108.77,58.97h0Zm59.35-34.08c-10.68,0-19.35-8.64-19.36-19.33v-.03c-.01-10.68,8.64-19.36,19.33-19.37h.04c10.68,0,19.35,8.64,19.36,19.33v.03c0,10.68-8.64,19.35-19.33,19.36h-.03Z"/></g></svg>