<?xml version="1.0" encoding="UTF-8"?><svg xmlns="http://www.w3.org/2000/svg" xmlns:xlink="http://www.w3.org/1999/xlink" viewBox="0 0 801 601"><defs><style>.u{fill:url(#t);}.v{fill:#fff;}.w{fill:url(#r);}.x{fill:url(#l);}.y{fill:url(#m);}.a`{fill:#9e1209;}.aa{fill:url(#f);}.ab{fill:url(#p);}.ac{fill:url(#g);}.ad{fill:url(#i);}.ae{fill:url(#b);stroke:url(#c);stroke-miterlimit:10;}.af{fill:url(#h);}.ag{fill:url(#e);}.ah{fill:url(#s);}.ai{fill:url(#n);}.aj{fill:url(#j);}.ak{fill:url(#o);}.al{fill:url(#q);}.am{fill:url(#k);}</style><linearGradient id="b" x1="50.5" y1="-49.5" x2="750.5" y2="650.5" gradientTransform="matrix(1, 0, 0, 1, 0, 0)" gradientUnits="userSpaceOnUse"><stop offset="0" stop-color="#e0e0e0"/><stop offset="1" stop-color="#c7c7c7"/></linearGradient><linearGradient id="c" x1="0" y1="300.5" x2="801" y2="300.5" gradientTransform="matrix(1, 0, 0, 1, 0, 0)" gradientUnits="userSpaceOnUse"><stop offset="0" stop-color="#a179dc"/><stop offset="1" stop-color="#280068"/></linearGradient><linearGradient id="e" x1="1.54" y1="601.49" x2="1.49" y2="601.57" gradientTransform="translate(-2463.62 1191531.58) scale(1981.58 -1980.1)" gradientUnits="userSpaceOnUse"><stop offset="0" stop-color="#fb7655"/><stop offset="0" stop-color="#fb7655"/><stop offset=".41" stop-color="#e42b1e"/><stop offset=".99" stop-color="#900"/><stop offset="1" stop-color="#900"/></linearGradient><linearGradient id="f" x1="-.41" y1="602.3" x2="-.62" y2="602.37" gradientTransform="translate(879.42 657790.61) scale(588.89 -1091.48)" gradientUnits="userSpaceOnUse"><stop offset="0" stop-color="#871101"/><stop offset="0" stop-color="#871101"/><stop offset=".99" stop-color="#911209"/><stop offset="1" stop-color="#911209"/></linearGradient><linearGradient id="g" x1="1.51" y1="609.56" x2="1.45" y2="609.94" gradientTransform="translate(-2243.45 131400.44) scale(1838.89 -214.69)" xlink:href="#f"/><linearGradient id="h" x1="1.69" y1="602.77" x2="1.71" y2="602.64" gradientTransform="translate(-786.28 571847.07) scale(636.89 -948.15)" gradientUnits="userSpaceOnUse"><stop offset="0" stop-color="#fff"/><stop offset="0" stop-color="#fff"/><stop offset=".23" stop-color="#e57252"/><stop offset=".46" stop-color="#de3b20"/><stop offset=".99" stop-color="#a60003"/><stop offset="1" stop-color="#a60003"/></linearGradient><linearGradient id="i" x1="1.19" y1="602.05" x2="1.2" y2="601.93" gradientTransform="translate(-808.4 628234.03) scale(1028.42 -1043.12)" gradientUnits="userSpaceOnUse"><stop offset="0" stop-color="#fff"/><stop offset="0" stop-color="#fff"/><stop offset=".23" stop-color="#e4714e"/><stop offset=".56" stop-color="#be1a0d"/><stop offset=".99" stop-color="#a80d00"/><stop offset="1" stop-color="#a80d00"/></linearGradient><linearGradient id="j" x1=".44" y1="601.68" x2=".46" y2="601.54" gradientTransform="translate(127.37 390325.11) scale(921.02 -648.55)" gradientUnits="userSpaceOnUse"><stop offset="0" stop-color="#fff"/><stop offset="0" stop-color="#fff"/><stop offset=".18" stop-color="#e46342"/><stop offset=".4" stop-color="#c82410"/><stop offset=".99" stop-color="#a80d00"/><stop offset="1" stop-color="#a80d00"/></linearGradient><linearGradient id="k" x1=".15" y1="601.22" x2=".28" y2="601.41" gradientTransform="translate(365.46 142739.23) scale(691.02 -237.29)" gradientUnits="userSpaceOnUse"><stop offset="0" stop-color="#fff"/><stop offset="0" stop-color="#fff"/><stop offset=".54" stop-color="#c81f11"/><stop offset=".99" stop-color="#bf0905"/><stop offset="1" stop-color="#bf0905"/></linearGradient><linearGradient id="l" x1="2.67" y1="602.88" x2="2.71" y2="602.77" gradientTransform="translate(-264.74 427956.3) scale(177.49 -709.36)" gradientUnits="userSpaceOnUse"><stop offset="0" stop-color="#fff"/><stop offset="0" stop-color="#fff"/><stop offset=".31" stop-color="#de4024"/><stop offset=".99" stop-color="#bf190b"/><stop offset="1" stop-color="#bf190b"/></linearGradient><linearGradient id="m" x1="1.55" y1="601.29" x2="1.77" y2="601.51" gradientTransform="translate(-2229.03 927705.26) scale(1544.41 -1542.21)" gradientUnits="userSpaceOnUse"><stop offset="0" stop-color="#bd0012"/><stop offset="0" stop-color="#bd0012"/><stop offset=".07" stop-color="#fff"/><stop offset=".17" stop-color="#fff"/><stop offset=".27" stop-color="#c82f1c"/><stop offset=".33" stop-color="#820c01"/><stop offset=".46" stop-color="#a31601"/><stop offset=".72" stop-color="#b31301"/><stop offset=".99" stop-color="#e82609"/><stop offset="1" stop-color="#e82609"/></linearGradient><linearGradient id="n" x1="1.42" y1="602.66" x2="1.34" y2="602.68" gradientTransform="translate(-1344.72 573658.61) scale(1240.83 -951.17)" gradientUnits="userSpaceOnUse"><stop offset="0" stop-color="#8c0c01"/><stop offset="0" stop-color="#8c0c01"/><stop offset=".54" stop-color="#990c00"/><stop offset=".99" stop-color="#a80d0e"/><stop offset="1" stop-color="#a80d0e"/></linearGradient><linearGradient id="o" x1=".5" y1="601.98" x2=".4" y2="602.06" gradientTransform="translate(138.94 621061.53) scale(917.99 -1031.18)" gradientUnits="userSpaceOnUse"><stop offset="0" stop-color="#7e110b"/><stop offset="0" stop-color="#7e110b"/><stop offset=".99" stop-color="#9e0c00"/><stop offset="1" stop-color="#9e0c00"/></linearGradient><linearGradient id="p" x1=".12" y1="601.32" x2=".06" y2="601.38" gradientTransform="translate(543.47 480408.7) scale(778.27 -798.67)" gradientUnits="userSpaceOnUse"><stop offset="0" stop-color="#79130d"/><stop offset="0" stop-color="#79130d"/><stop offset=".99" stop-color="#9e120b"/><stop offset="1" stop-color="#9e120b"/></linearGradient><radialGradient id="q" cx=".41" cy="602.72" fx=".41" fy="602.72" r=".12" gradientTransform="translate(153.45 286583.01) scale(909.23 -475.1)" gradientUnits="userSpaceOnUse"><stop offset="0" stop-color="#a80d00"/><stop offset="0" stop-color="#a80d00"/><stop offset=".99" stop-color="#7e0e08"/><stop offset="1" stop-color="#7e0e08"/></radialGradient><radialGradient id="r" cx="1.04" cy="603.06" fx="1.04" fy="603.06" r=".16" gradientTransform="translate(-623.81 447020.77) scale(951.41 -740.63)" gradientUnits="userSpaceOnUse"><stop offset="0" stop-color="#a30c00"/><stop offset="0" stop-color="#a30c00"/><stop offset=".99" stop-color="#800e08"/><stop offset="1" stop-color="#800e08"/></radialGradient><linearGradient id="s" x1="1.87" y1="603" x2="1.78" y2="603.16" gradientTransform="translate(-473.06 478266.81) scale(391.92 -792.34)" gradientUnits="userSpaceOnUse"><stop offset="0" stop-color="#8b2114"/><stop offset="0" stop-color="#8b2114"/><stop offset=".43" stop-color="#9e100a"/><stop offset=".99" stop-color="#b3100c"/><stop offset="1" stop-color="#b3100c"/></linearGradient><linearGradient id="t" x1="-.02" y1="601.32" x2=".09" y2="601.2" gradientTransform="translate(564.69 191621.41) scale(762.62 -318.55)" gradientUnits="userSpaceOnUse"><stop offset="0" stop-color="#b31000"/><stop offset="0" stop-color="#b31000"/><stop offset=".44" stop-color="#910f08"/><stop offset=".99" stop-color="#791c12"/><stop offset="1" stop-color="#791c12"/></linearGradient></defs><g id="a"><rect class="ae" x=".5" y=".5" width="800" height="600"/></g><g id="d"><path class="ag" d="M544.06,339.9l-253.05,150.26,327.66-22.24,25.23-330.39-99.84,202.36h0Z"/><path class="aa" d="M619.2,467.7l-28.16-194.38-76.71,101.29,104.87,93.08h0Z"/><path class="ac" d="M619.58,467.7l-206.32-16.19-121.16,38.23,327.48-22.04h0Z"/><path class="af" d="M292.39,489.78l51.54-168.85-113.42,24.25,61.88,144.6h0Z"/><path class="ad" d="M514.31,375.17l-47.43-185.76-135.72,127.22,183.15,58.54h0Z"/><path class="aj" d="M633.14,192.03l-128.3-104.78-35.73,115.5,164.02-10.72h0Z"/><path class="am" d="M573.14,49.88l-75.46,41.7-47.61-42.26,123.06,.56h0Z"/><path class="x" d="M200.67,401.82l31.61-57.65-25.57-68.68-6.04,126.33Z"/><path class="v" d="M205.01,273.32l25.73,72.97,111.79-25.08,127.62-118.61,36.02-114.4-56.71-40.04-96.42,36.08c-30.38,28.25-89.32,84.16-91.45,85.21-2.1,1.07-38.93,70.67-56.58,103.87h0Z"/><path class="y" d="M295.34,142.23c65.84-65.28,150.71-103.84,183.28-70.98,32.55,32.86-1.97,112.72-67.81,177.98-65.84,65.25-149.66,105.95-182.21,73.08-32.57-32.84,.9-114.83,66.73-180.08h0Z"/><path class="ai" d="M292.39,489.71l51.14-169.39,169.84,54.56c-61.41,57.58-129.7,106.26-220.98,114.83h0Z"/><path class="ak" d="M470.37,202.27l43.6,172.7c51.3-53.94,97.33-111.92,119.88-183.64l-163.48,10.94h0Z"/><path class="ab" d="M633.41,192.2c17.45-52.66,21.48-128.21-60.8-142.23l-67.52,37.29,128.32,104.94Z"/><path class="a`" d="M200.67,401.06c2.42,86.91,65.12,88.21,91.83,88.97l-61.7-144.09-30.13,55.12Z"/><path class="al" d="M470.61,202.54c39.42,24.23,118.86,72.88,120.47,73.78,2.5,1.41,34.25-53.53,41.45-84.58l-161.92,10.81Z"/><path class="w" d="M343.46,320.32l68.36,131.9c40.42-21.92,72.08-48.63,101.07-77.24l-169.43-54.65h0Z"/><path class="ah" d="M230.53,346.12l-9.69,115.34c18.28,24.97,43.42,27.14,69.8,25.19-19.08-47.49-57.2-142.46-60.11-140.53Z"/><path class="u" d="M504.69,87.56l135.81,19.06c-7.25-30.71-29.51-50.53-67.45-56.73l-68.36,37.67h0Z"/></g></svg>